<?xml version="1.0" standalone="no"?>
<!DOCTYPE svg PUBLIC "-//W3C//DTD SVG 20010904//EN"
 "http://www.w3.org/TR/2001/REC-SVG-20010904/DTD/svg10.dtd">
<svg version="1.0" xmlns="http://www.w3.org/2000/svg"
 width="436.000000pt" height="436.000000pt" viewBox="0 0 436.000000 436.000000"
 preserveAspectRatio="xMidYMid meet">
<metadata>
Created by potrace 1.14, written by Peter Selinger 2001-2017
</metadata>
<g transform="translate(0.000000,436.000000) scale(0.100000,-0.100000)"
fill="#000000" stroke="none">
<path d="M1994 4353 c-6 -5 -28 -41 -48 -80 -34 -69 -38 -73 -70 -73 -32 0
-66 -20 -66 -39 0 -4 6 -15 13 -25 10 -14 26 -18 70 -17 32 0 62 3 67 6 6 4
19 26 30 51 12 25 24 43 28 40 4 -2 34 -59 67 -126 44 -89 65 -122 82 -126 32
-8 39 -1 78 80 33 70 36 73 71 74 42 2 64 17 64 43 0 26 -31 39 -94 39 l-56 0
-26 -52 -26 -52 -16 30 c-9 16 -39 74 -66 129 -51 99 -71 118 -102 98z"/>
<path d="M1480 4312 c-69 -33 -103 -83 -103 -152 0 -61 31 -114 82 -139 l37
-19 -1 -80 c-1 -73 1 -81 20 -84 11 -2 29 -2 41 1 18 5 21 14 22 71 0 96 1
100 14 100 6 0 26 12 45 26 81 62 76 195 -9 258 -28 20 -120 32 -148 18z"/>
<path d="M2582 4304 c-110 -56 -112 -228 -4 -283 l37 -19 0 -78 c0 -75 1 -78
25 -84 52 -13 60 -4 59 69 -2 93 -1 101 15 101 21 0 65 39 82 73 37 71 17 162
-46 207 -43 31 -122 37 -168 14z"/>
<path d="M1141 3743 c-18 -9 -45 -34 -59 -56 l-27 -40 0 -527 0 -527 27 -40
c54 -81 -12 -76 1013 -76 839 0 913 1 946 17 41 19 70 49 86 87 7 17 10 193 9
550 l-1 526 -27 35 c-55 72 8 68 -1015 68 -833 0 -921 -2 -952 -17z m1149
-232 c0 -3 -35 -110 -77 -238 l-78 -233 -310 0 c-192 0 -325 4 -349 11 -194
54 -240 304 -77 421 20 14 52 30 71 35 37 10 820 14 820 4z m160 1 c0 -3 -35
-111 -77 -239 l-78 -233 -38 0 c-33 0 -38 3 -32 18 4 9 8 24 10 32 4 14 129
390 140 417 4 12 75 16 75 5z m305 -16 c43 -18 101 -78 121 -124 20 -48 20
-137 0 -185 -24 -54 -85 -111 -141 -131 -41 -13 -235 -25 -235 -13 0 3 146
443 155 465 5 14 49 9 100 -12z m-944 -710 c6 -58 5 -61 -32 -64 -36 -3 -37
-2 -41 37 l-3 40 37 -1 c21 0 39 -5 39 -12z m164 -29 c0 -36 -1 -37 -37 -37
-39 0 -48 13 -40 58 4 19 10 22 41 19 34 -2 36 -4 36 -40z m160 0 c0 -37 0
-37 -40 -37 -42 0 -43 2 -36 73 1 4 18 6 39 4 36 -2 37 -4 37 -40z m157 25 c5
-56 4 -57 -37 -60 -39 -3 -40 -2 -38 30 1 18 2 36 2 40 1 3 17 6 36 6 25 0 35
-5 37 -16z m159 6 c7 -57 4 -63 -34 -63 -20 0 -37 3 -37 8 0 4 0 20 0 37 0 27
3 29 35 28 19 -1 35 -5 36 -10z"/>
<path d="M899 3260 c-79 -42 -106 -153 -56 -229 25 -38 78 -71 115 -71 18 0
19 8 20 160 0 158 0 160 -21 160 -12 -1 -38 -10 -58 -20z"/>
<path d="M3217 3272 c-2 -4 -3 -77 -3 -162 1 -168 1 -166 56 -148 30 11 74 47
89 76 36 68 12 166 -51 209 -34 23 -85 37 -91 25z"/>
<path d="M3613 2403 c-87 -58 -133 -134 -141 -231 -6 -73 -9 -75 -127 -106
-102 -26 -116 -27 -250 -31 -125 -3 -256 12 -367 43 -21 6 -38 9 -38 7 0 -3
18 -32 40 -66 22 -34 40 -65 40 -69 0 -12 23 -18 87 -26 32 -3 61 -8 65 -11
11 -6 246 -4 298 3 68 9 201 41 256 62 l49 18 39 -28 c75 -54 180 -65 279 -28
60 22 77 41 77 84 0 48 -55 65 -112 35 -59 -31 -146 -19 -189 27 -19 20 -24
36 -23 74 1 55 23 92 84 140 56 45 55 97 -2 119 -22 8 -33 6 -65 -16z"/>
<path d="M1935 2357 l2 -43 -88 -27 c-256 -78 -446 -283 -497 -539 -14 -70
-17 -143 -17 -425 l0 -340 28 -37 c56 -72 23 -69 692 -69 644 0 631 -1 677 50
44 49 46 70 43 438 -2 325 -4 355 -24 425 -70 241 -255 429 -486 495 -88 25
-90 26 -88 73 l1 42 -122 0 -123 0 2 -43z m176 -461 c86 -43 241 -142 251
-160 17 -30 16 -317 0 -348 -7 -12 -26 -31 -42 -40 l-30 -17 1 127 c1 234 0
242 -16 242 -8 0 -58 -25 -112 -57 -54 -31 -102 -56 -108 -56 -5 0 -54 26
-109 57 -54 31 -105 56 -112 56 -16 0 -15 12 -17 -197 0 -118 -4 -163 -12
-163 -22 0 -65 52 -66 79 0 14 -1 88 -1 164 0 150 6 170 58 197 16 8 69 39
119 69 128 76 134 78 196 47z m-6 -550 c25 14 49 24 52 21 5 -6 7 -40 4 -92
-1 -24 -68 -65 -106 -65 -14 0 -44 10 -65 23 -40 22 -40 22 -40 84 l0 61 55
-30 54 -29 46 27z"/>
<path d="M1450 2150 c-8 -5 -53 -28 -100 -51 -258 -126 -465 -321 -589 -554
-30 -55 -35 -60 -69 -63 -117 -9 -242 -126 -245 -230 -2 -40 1 -48 25 -61 38
-22 69 -2 98 60 30 68 79 104 141 104 86 0 127 -65 115 -185 -5 -61 -4 -68 17
-86 12 -11 28 -19 35 -18 6 1 19 2 27 3 36 3 60 112 43 199 -10 58 -33 104
-70 143 -30 31 -30 32 -14 66 72 151 227 316 408 435 53 35 77 60 117 120 27
41 54 79 60 82 14 9 34 46 24 45 -4 0 -15 -4 -23 -9z"/>
<path d="M1712 778 c8 -12 27 -31 41 -42 24 -18 45 -19 295 -19 294 -1 316 3
346 53 l17 30 -357 0 -356 0 14 -22z"/>
<path d="M2009 639 c-87 -13 -157 -63 -205 -146 -25 -41 -77 -173 -69 -173 2
0 38 18 81 39 l79 40 79 -201 c59 -146 82 -195 88 -181 4 10 40 100 80 200
l73 183 78 -40 c74 -39 78 -39 74 -18 -9 66 -70 182 -120 229 -54 51 -156 80
-238 68z"/>
</g>
</svg>
