<svg class="c-robot js-robot" id="Robot_master" xmlns="http://www.w3.org/2000/svg" viewBox="0 0 100 120">
    <title>MCT Robot</title>
    <ellipse class="c-robot__shadow" id="Shadow" cx="49.88" cy="118" rx="18" ry="2"/>
    <g id="Robot">
    <g id="Torso">
        <path id="Arm-right" d="M96.33,63.36a1.5,1.5,0,0,0-2-.54,5.17,5.17,0,0,1-3.41.67,2.95,2.95,0,0,1-2.38-4.13,5.15,5.15,0,0,1,2.29-2.61,1.5,1.5,0,1,0-1.5-2.59,8,8,0,0,0-3.6,4.17,6.25,6.25,0,0,0-.3,3.48c-6.79,2.82-13.8,2.22-19.71.51A20.56,20.56,0,0,1,67.93,66a35.74,35.74,0,0,0,7.3.79,29.15,29.15,0,0,0,11.5-2.29,6.24,6.24,0,0,0,3.63,2,7.77,7.77,0,0,0,1.27.1,8.35,8.35,0,0,0,4.15-1.14A1.51,1.51,0,0,0,96.33,63.36Z" transform="translate(0 0)"/>
        <g id="Body">
        <g id="Rocket">
            <path id="Fire" d="M44.88,100.45c-2,2-3,6-3,6l4-2,4,10,4-10,4,2s-1-4-3-6a7.26,7.26,0,0,0-10,0Z" transform="translate(0 0)"/>
            <path id="Pipe" d="M41.06,94.55a3,3,0,0,0,2.82,2h12a3,3,0,0,0,2.81-2Z" transform="translate(0 0)"/>
        </g>
        <path id="Belly" d="M52.88,56.82V54.55h-6v2.27a18,18,0,0,0-15,17.73v14a4,4,0,0,0,4,4h28a4,4,0,0,0,4-4v-14A18,18,0,0,0,52.88,56.82Zm-.27,26.29-1.64,1a2.2,2.2,0,0,1-2.19,0l-1.63-1V80l2.73,1.51L52.61,80Zm5.27-4.3a2.18,2.18,0,0,1-1.1,1.89l-1,.59V72.47a.47.47,0,0,0-.71-.41L49.88,75l-5.19-2.92a.47.47,0,0,0-.71.41v8.82l-1-.59a2.17,2.17,0,0,1-1.09-1.89V72.1A2.18,2.18,0,0,1,43,70.2l5.81-3.36a2.2,2.2,0,0,1,2.19,0l5.81,3.36a2.18,2.18,0,0,1,1.1,1.9Z" transform="translate(0 0)"/>
        </g>
        <path id="Arm-left" d="M35.35,60.58C26.41,64.33,20,70.15,16.78,77.47c-3.08-.27-6.17,2-7.24,5.5a1.5,1.5,0,1,0,2.87.87c.72-2.37,2.81-3.84,4.66-3.28s2.76,3,2,5.33a1.5,1.5,0,0,0,1,1.87,1.31,1.31,0,0,0,.44.07A1.51,1.51,0,0,0,22,86.77a7.43,7.43,0,0,0-2.37-8.25A28.65,28.65,0,0,1,32,65.58a20,20,0,0,1,3.71-5.16Z" transform="translate(0 0)"/>
    </g>
    <g id="Head">
        <path id="Face" d="M72.91,20.5h-44a4,4,0,0,0-4,4v24a4,4,0,0,0,4,4h44a4,4,0,0,0,4-4v-24A4,4,0,0,0,72.91,20.5Zm-29,26h-2v-2h2Zm4,0h-2v-2h2Zm4,0h-2v-2h2Zm-15-8a6,6,0,0,1,0-12h19l-4,12Zm19,8h-2v-2h2Zm4,0h-2v-2h2Zm-4-8h-2l4-12h2Zm13.24-1.76a5.94,5.94,0,0,1-4.24,1.76h-4l4-12a6,6,0,0,1,6,6A5.94,5.94,0,0,1,69.15,36.74Z" transform="translate(0 0)"/>
        <path id="Ear-right" d="M78.91,32.62h0a4,4,0,0,1,4,4h0a4,4,0,0,1-4,4h0v-8Z" transform="translate(0 0)"/>
        <path id="Ear-left" d="M22.91,32.53h0v8h0a4,4,0,0,1-4-4h0A4,4,0,0,1,22.91,32.53Z" transform="translate(0 0)"/>
        <g id="Top">
        <path id="Antenna-left" d="M40.91,10.5a4,4,0,1,0-5,3.86V18.5h2V14.36A4,4,0,0,0,40.91,10.5Z" transform="translate(0 0)"/>
        <path id="Antenna-right" d="M68.91,10.5a4,4,0,1,0-5,3.86V18.5h2V14.36A4,4,0,0,0,68.91,10.5Z" transform="translate(0 0)"/>
        <path id="Signal" d="M52.91,15.5A1,1,0,0,1,52,15l-3.1-6.21L47.8,11a1,1,0,0,1-.89.55h-2a1,1,0,0,1,0-2h1.38L48,6.05a1,1,0,0,1,1.79,0l3.11,6.22L54,10.05a1,1,0,0,1,.9-.55h2a1,1,0,0,1,0,2H55.53L53.8,15A1,1,0,0,1,52.91,15.5Z" transform="translate(0 0)"/>
        </g>
    </g>
    </g>
</svg>