<svg xmlns="http://www.w3.org/2000/svg" viewBox="0 0 100 120"><defs><style>.a{fill:#6dbedf;}.b{opacity:0.1;}.c{fill:#fff;}</style></defs><rect class="a" width="100" height="120"/><ellipse class="b" cx="49.5" cy="95.5" rx="12.5" ry="1.5"/><path class="c" d="M82.86,52.73a1.07,1.07,0,0,0-1.48-.4,3.64,3.64,0,0,1-2.44.49,2.22,2.22,0,0,1-1.61-1.06,2.31,2.31,0,0,1-.1-1.95,3.68,3.68,0,0,1,1.64-1.9,1.1,1.1,0,0,0,.39-1.5,1.07,1.07,0,0,0-1.47-.4,5.88,5.88,0,0,0-2.58,3A4.75,4.75,0,0,0,75,51.59,21,21,0,0,1,60.83,52a14,14,0,0,1,1.63,2.68,25.92,25.92,0,0,0,5.24.57A20.6,20.6,0,0,0,76,53.55,4.53,4.53,0,0,0,78.57,55a5.58,5.58,0,0,0,.91.07,5.86,5.86,0,0,0,3-.83A1.1,1.1,0,0,0,82.86,52.73Z"/><path class="c" d="M45.9,79.79a11.42,11.42,0,0,0-2.15,4.37l2.87-1.46L49.49,90l2.88-7.31,2.87,1.47a11.34,11.34,0,0,0-2.16-4.37,5.14,5.14,0,0,0-7.18,0Z"/><path class="c" d="M43.16,75.48a2.16,2.16,0,0,0,2,1.46H53.8a2.16,2.16,0,0,0,2-1.46Z"/><path class="c" d="M51.65,48V46.3H47.34V48A13.08,13.08,0,0,0,36.56,60.89V71.1A2.9,2.9,0,0,0,39.44,74H59.55a2.89,2.89,0,0,0,2.87-2.92V60.89A13.07,13.07,0,0,0,51.65,48Zm-.19,19.18-1.18.69a1.53,1.53,0,0,1-1.57,0l-1.18-.69V64.84l2,1.1,2-1.1ZM55.24,64a1.62,1.62,0,0,1-.79,1.39l-.72.42V59.37a.34.34,0,0,0-.51-.3L49.5,61.2l-3.73-2.13a.34.34,0,0,0-.51.3V65.8l-.73-.42A1.63,1.63,0,0,1,43.75,64V59.1a1.63,1.63,0,0,1,.78-1.39l4.18-2.44a1.53,1.53,0,0,1,1.57,0l4.17,2.44a1.62,1.62,0,0,1,.79,1.39Z"/><path class="c" d="M39.06,50.69c-6.42,2.74-11,7-13.34,12.33a5.25,5.25,0,0,0-5.2,4,1.11,1.11,0,0,0,.72,1.37,1.07,1.07,0,0,0,1.34-.73c.52-1.73,2-2.81,3.35-2.39s2,2.15,1.46,3.88a1.1,1.1,0,0,0,1,1.42,1.09,1.09,0,0,0,1-.78,5.49,5.49,0,0,0-1.7-6,20.85,20.85,0,0,1,8.92-9.44,14.75,14.75,0,0,1,2.67-3.76Z"/><path class="c" d="M66,21.46H34.43a2.89,2.89,0,0,0-2.87,2.92V41.89a2.89,2.89,0,0,0,2.87,2.91H66a2.89,2.89,0,0,0,2.87-2.91V24.38A2.89,2.89,0,0,0,66,21.46Zm-20.83,19H43.77V39h1.44Zm2.87,0H46.64V39h1.44Zm2.87,0H49.52V39H51ZM40.18,34.59a4.39,4.39,0,0,1-3-7.47,4.24,4.24,0,0,1,3-1.28H53.83L51,34.59Zm13.65,5.84H52.39V39h1.44Zm2.87,0H55.26V39H56.7Zm-2.87-5.84H52.39l2.87-8.75H56.7Zm9.51-1.28a4.28,4.28,0,0,1-3.05,1.28H57.42l2.87-8.75a4.34,4.34,0,0,1,4.31,4.37A4.4,4.4,0,0,1,63.34,33.31Z"/><path class="c" d="M70.35,30.3h0a2.9,2.9,0,0,1,2.87,2.92h0a2.9,2.9,0,0,1-2.87,2.92h0V30.3Z"/><path class="c" d="M30.12,30.23h0v5.84h0a2.9,2.9,0,0,1-2.87-2.92h0A2.9,2.9,0,0,1,30.12,30.23Z"/><path class="c" d="M43.05,14.16A2.87,2.87,0,1,0,39.46,17v3H40.9V17A2.92,2.92,0,0,0,43.05,14.16Z"/><path class="c" d="M63.16,14.16A2.87,2.87,0,1,0,59.57,17v3H61V17A2.9,2.9,0,0,0,63.16,14.16Z"/><path class="c" d="M51.67,17.81a.72.72,0,0,1-.64-.4L48.8,12.87,48,14.49a.71.71,0,0,1-.64.4H45.93a.73.73,0,0,1,0-1.46h1l1.24-2.51a.73.73,0,0,1,1.28,0l2.23,4.53.8-1.61a.72.72,0,0,1,.64-.41h1.43a.73.73,0,0,1,0,1.46h-1l-1.24,2.52A.72.72,0,0,1,51.67,17.81Z"/></svg>